<svg xmlns="http://www.w3.org/2000/svg" width="512" height="512" viewBox="0 0 512 512">
  <defs>
    <style>
      .cls-1 {
        fill: #d14836;
      }

      .cls-1, .cls-2 {
        fill-rule: evenodd;
      }

      .cls-2 {
        fill: #010000;
      }
    </style>
  </defs>
  <path id="B" class="cls-1" d="M448.612,426.921a17.87,17.87,0,0,0,5.588-13.038V317.654q0-6.823-5.588-13.658L413.846,269.85l15.521-14.9a18.574,18.574,0,0,0,5.587-13.658V145.683a18.588,18.588,0,0,0-5.587-13.658L390.875,93.533a18.589,18.589,0,0,0-13.658-5.587H205.246a19.316,19.316,0,0,0-13.658,32.9,18.572,18.572,0,0,0,13.658,5.588H369.767l26.695,27.316v79.467l-26.695,27.317H224.492V164.929a19.246,19.246,0,1,0-38.492,0V451.754a19.246,19.246,0,1,0,38.492,0V298.408h163.9l27.316,27.317v80.087l-27.316,26.7H262.363a19.246,19.246,0,1,0,0,38.492h134.1a18.586,18.586,0,0,0,13.659-5.588Z"/>
  <path id="L" class="cls-2" d="M330.612,370.921a17.87,17.87,0,0,0,5.588-13.038V338.637a19.246,19.246,0,1,0-38.492,0v11.175l-27.316,26.7h-137.2l-26.7-26.7V51.192A19.08,19.08,0,0,0,87.246,31.946,19.079,19.079,0,0,0,68,51.192V357.883q0,8.7,5.588,13.038l38.491,38.491Q116.416,415,125.117,415H278.462a18.586,18.586,0,0,0,13.659-5.588Z"/>
</svg>
